<?xml version="1.0" encoding="utf-8"?>
<!-- Generator: Adobe Illustrator 27.7.0, SVG Export Plug-In . SVG Version: 6.00 Build 0)  -->
<svg version="1.1" id="Layer_1" xmlns="http://www.w3.org/2000/svg" xmlns:xlink="http://www.w3.org/1999/xlink" x="0px" y="0px"
	 viewBox="0 0 288 108" style="enable-background:new 0 0 288 108;" xml:space="preserve">
<style type="text/css">
	.st0{fill:#032698;}
	.st1{fill:#0A4DBC;}
</style>
<g>
	<path d="M93.6,40V15.3h13.2c1.8,0,3.4,0.3,4.8,1c1.3,0.7,2.4,1.6,3.1,2.8c0.7,1.2,1.1,2.6,1.1,4.2c0,1.6-0.4,3-1.2,4.2
		c-0.8,1.3-1.9,2.2-3.2,3c-1.4,0.7-2.9,1.1-4.6,1.1h-7.5V40H93.6z M99.3,26.8h6.8c0.7,0,1.3-0.1,1.9-0.4c0.5-0.3,1-0.7,1.3-1.2
		c0.3-0.5,0.5-1.1,0.5-1.7c0-0.7-0.2-1.2-0.5-1.7c-0.3-0.5-0.8-0.9-1.4-1.1c-0.6-0.3-1.2-0.4-2-0.4h-6.6V26.8z M110.2,40l-7.6-11.2
		l6.3-0.9l8.3,12.1H110.2z"/>
	<path d="M117,40l11.4-24.8h5.5L145.2,40H139l-6.4-13.9c-0.2-0.5-0.4-1-0.6-1.5c-0.2-0.5-0.4-1-0.6-1.5c-0.2-0.5-0.4-1-0.5-1.5
		c-0.2-0.5-0.3-1-0.5-1.5l1.3,0c-0.2,0.5-0.3,1-0.5,1.5c-0.2,0.5-0.3,1-0.5,1.5c-0.2,0.5-0.4,1-0.6,1.5c-0.2,0.5-0.4,1-0.6,1.5
		L123,40H117z M122.3,35.5l1.9-4.5h13.6l1.2,4.5H122.3z"/>
	<path d="M146.7,40V15.3h13.2c1.8,0,3.4,0.3,4.8,1c1.3,0.7,2.4,1.6,3.1,2.8c0.7,1.2,1.1,2.6,1.1,4.2c0,1.6-0.4,3-1.2,4.2
		c-0.8,1.3-1.9,2.2-3.2,3c-1.4,0.7-2.9,1.1-4.6,1.1h-7.5V40H146.7z M152.4,26.8h6.8c0.7,0,1.3-0.1,1.9-0.4c0.5-0.3,1-0.7,1.3-1.2
		c0.3-0.5,0.5-1.1,0.5-1.7c0-0.7-0.2-1.2-0.5-1.7c-0.3-0.5-0.8-0.9-1.4-1.1c-0.6-0.3-1.2-0.4-2-0.4h-6.6V26.8z M163.3,40l-7.6-11.2
		l6.3-0.9l8.3,12.1H163.3z"/>
	<path d="M173.9,40v-5.2h5.7V20.5h-5.7v-5.2h17.5v5.2h-5.8v14.4h5.8V40H173.9z"/>
	<path d="M203.3,40V20.6h-8.9v-5.3h24.1v5.3h-9.1V40H203.3z"/>
	<path d="M215.8,40l11.4-24.8h5.5L244,40h-6.2l-6.4-13.9c-0.2-0.5-0.4-1-0.6-1.5c-0.2-0.5-0.4-1-0.6-1.5s-0.4-1-0.5-1.5
		c-0.2-0.5-0.3-1-0.5-1.5l1.3,0c-0.2,0.5-0.3,1-0.5,1.5c-0.2,0.5-0.3,1-0.5,1.5c-0.2,0.5-0.4,1-0.6,1.5c-0.2,0.5-0.4,1-0.6,1.5
		L221.8,40H215.8z M221.1,35.5L223,31h13.6l1.2,4.5H221.1z"/>
	<path d="M245.4,40V15.3h5.6l16.2,17.7l-1-0.2c-0.1-0.8-0.2-1.7-0.3-2.5c-0.1-0.8-0.1-1.5-0.2-2.3c0-0.7-0.1-1.4-0.1-2.1
		c0-0.7-0.1-1.4-0.1-2.2c0-0.8,0-1.5,0-2.3v-6.1h5.8V40h-5.7L249,21.8l1.6,0.2c0.1,0.6,0.2,1.2,0.2,1.8c0.1,0.6,0.1,1.1,0.2,1.7
		c0.1,0.6,0.1,1.2,0.2,1.8s0.1,1.3,0.1,2c0,0.7,0,1.5,0,2.4V40H245.4z"/>
	<path d="M93.6,66.4V41.6h13.5c1.6,0,3.1,0.4,4.4,1.1c1.3,0.7,2.3,1.7,3.1,2.9c0.8,1.2,1.1,2.6,1.1,4.1c0,1.7-0.4,3.1-1.2,4.4
		c-0.8,1.3-1.9,2.3-3.3,3.1c-1.4,0.7-2.9,1.1-4.6,1.1h-7v8.1H93.6z M99.5,53h6.1c0.7,0,1.4-0.1,1.9-0.4c0.6-0.3,1-0.7,1.4-1.1
		s0.5-1,0.5-1.6c0-0.6-0.2-1.1-0.5-1.6s-0.8-0.8-1.4-1s-1.2-0.4-1.9-0.4h-6.1V53z"/>
	<path d="M131.2,66.6c-2.4,0-4.6-0.5-6.4-1.5c-1.8-1-3.3-2.3-4.3-4c-1-1.7-1.5-3.6-1.5-5.8V41.6h6.1v13.6c0,1.2,0.3,2.2,0.8,3.1
		s1.3,1.6,2.2,2.2c0.9,0.5,2,0.8,3.1,0.8c1.2,0,2.3-0.3,3.2-0.8c0.9-0.5,1.7-1.2,2.2-2.2c0.6-0.9,0.8-2,0.8-3.1V41.6h5.9v13.8
		c0,2.2-0.5,4.1-1.5,5.8s-2.5,3-4.3,4C135.7,66.1,133.6,66.6,131.2,66.6z"/>
	<path d="M148.2,66.4V41.6h13c2,0,3.7,0.2,5.1,0.7c1.4,0.5,2.4,1.2,3.1,2.1c0.7,0.9,1.1,2,1.1,3.3c0,1.4-0.4,2.6-1.2,3.5
		c-0.8,1-1.9,1.6-3.5,2l0.1-0.7c1.1,0.2,2,0.6,2.9,1.2c0.9,0.5,1.6,1.2,2.1,2.1c0.5,0.8,0.8,1.9,0.8,3c0,1.4-0.3,2.6-0.8,3.6
		c-0.6,1-1.3,1.7-2.3,2.3c-1,0.6-2,1-3.2,1.3c-1.2,0.3-2.3,0.4-3.5,0.4H148.2z M153.8,51.4h7c0.7,0,1.4-0.1,1.9-0.3
		c0.5-0.2,0.9-0.5,1.3-0.8c0.3-0.4,0.5-0.8,0.5-1.3c0-0.8-0.4-1.4-1.1-1.8c-0.7-0.4-1.6-0.6-2.8-0.6h-6.8V51.4z M153.8,61.4h8
		c0.8,0,1.4-0.1,2-0.3c0.6-0.2,1.1-0.5,1.4-0.9c0.3-0.4,0.5-0.9,0.5-1.5c0-0.7-0.2-1.2-0.6-1.6c-0.4-0.4-0.9-0.7-1.6-0.8
		s-1.3-0.2-1.9-0.2h-7.9V61.4z"/>
	<path d="M175,66.4V41.6h6v19.5h14.2v5.3H175z"/>
	<path d="M198.6,66.4v-5.2h5.7V46.8h-5.7v-5.2h17.5v5.2h-5.8v14.4h5.8v5.2H198.6z"/>
	<path d="M233.7,66.7c-2.1,0-4-0.3-5.7-0.9c-1.7-0.6-3.3-1.5-4.6-2.6c-1.3-1.1-2.3-2.5-3.1-4.1c-0.7-1.6-1.1-3.3-1.1-5.2
		c0-1.9,0.4-3.6,1.1-5.1c0.8-1.6,1.8-2.9,3.1-4.1c1.3-1.2,2.8-2,4.6-2.7c1.8-0.6,3.6-0.9,5.7-0.9c1.4,0,2.8,0.2,4.2,0.5
		c1.3,0.3,2.6,0.8,3.7,1.4c1.1,0.6,2.1,1.2,2.9,2l-3.5,4.6c-0.6-0.5-1.3-1-2-1.5c-0.7-0.4-1.6-0.8-2.5-1c-0.9-0.3-1.9-0.4-3.1-0.4
		c-1,0-2,0.2-3,0.5c-0.9,0.3-1.8,0.8-2.6,1.4s-1.4,1.4-1.8,2.3c-0.4,0.9-0.7,1.9-0.7,3.1c0,1.2,0.2,2.2,0.7,3.1
		c0.5,0.9,1.1,1.7,1.9,2.3c0.8,0.6,1.7,1.1,2.8,1.4c1,0.3,2.2,0.5,3.3,0.5c1.1,0,2.2-0.2,3.1-0.5c0.9-0.3,1.7-0.7,2.5-1.2
		c0.7-0.5,1.4-0.9,1.9-1.4l2.9,4.6c-0.7,0.6-1.6,1.2-2.7,1.8s-2.4,1.1-3.8,1.5C236.6,66.5,235.2,66.7,233.7,66.7z"/>
	<path d="M93.6,92.7V68h6v19.5h14.2v5.3H93.6z"/>
	<path d="M117.2,92.7v-5.2h5.7V73.2h-5.7V68h17.5v5.2h-5.8v14.4h5.8v5.2H117.2z"/>
	<path d="M140,92.7V68h13c2,0,3.7,0.2,5.1,0.7s2.4,1.2,3.1,2.1c0.7,0.9,1.1,2,1.1,3.3c0,1.4-0.4,2.6-1.2,3.5c-0.8,1-1.9,1.6-3.5,2
		l0.1-0.7c1.1,0.2,2,0.6,2.9,1.2s1.6,1.2,2.1,2.1c0.5,0.8,0.8,1.9,0.8,3c0,1.4-0.3,2.6-0.8,3.6c-0.6,1-1.3,1.7-2.3,2.3
		c-1,0.6-2,1-3.2,1.3c-1.2,0.3-2.3,0.4-3.5,0.4H140z M145.7,77.8h7c0.7,0,1.4-0.1,1.9-0.3c0.5-0.2,0.9-0.5,1.3-0.8
		c0.3-0.4,0.5-0.8,0.5-1.3c0-0.8-0.4-1.4-1.1-1.8c-0.7-0.4-1.6-0.6-2.8-0.6h-6.8V77.8z M145.7,87.7h8c0.8,0,1.4-0.1,2-0.3
		c0.6-0.2,1.1-0.5,1.4-0.9c0.3-0.4,0.5-0.9,0.5-1.5c0-0.7-0.2-1.2-0.6-1.6c-0.4-0.4-0.9-0.7-1.6-0.8s-1.3-0.2-1.9-0.2h-7.9V87.7z"/>
	<path d="M166.9,92.7V68h13.2c1.8,0,3.4,0.3,4.8,1c1.3,0.7,2.4,1.6,3.1,2.8c0.7,1.2,1.1,2.6,1.1,4.2c0,1.6-0.4,3-1.2,4.2
		c-0.8,1.3-1.9,2.2-3.2,3c-1.4,0.7-2.9,1.1-4.6,1.1h-7.5v8.6H166.9z M172.6,79.5h6.8c0.7,0,1.3-0.1,1.9-0.4c0.5-0.3,1-0.7,1.3-1.2
		s0.5-1.1,0.5-1.7s-0.2-1.2-0.5-1.7c-0.3-0.5-0.8-0.9-1.4-1.1c-0.6-0.3-1.2-0.4-2-0.4h-6.6V79.5z M183.5,92.7l-7.6-11.2l6.3-0.9
		l8.4,12.1H183.5z"/>
	<path d="M190.3,92.7L201.7,68h5.5l11.3,24.8h-6.2L206,78.8c-0.2-0.5-0.4-1-0.6-1.5c-0.2-0.5-0.4-1-0.6-1.5s-0.4-1-0.5-1.5
		c-0.2-0.5-0.3-1-0.5-1.5l1.3,0c-0.2,0.5-0.3,1-0.5,1.5c-0.2,0.5-0.3,1-0.5,1.5s-0.4,1-0.6,1.5c-0.2,0.5-0.4,1-0.6,1.5l-6.4,13.9
		H190.3z M195.6,88.2l1.9-4.5h13.6l1.2,4.5H195.6z"/>
	<path d="M220,92.7V68h13.2c1.8,0,3.4,0.3,4.8,1c1.3,0.7,2.4,1.6,3.1,2.8c0.7,1.2,1.1,2.6,1.1,4.2c0,1.6-0.4,3-1.2,4.2
		c-0.8,1.3-1.9,2.2-3.2,3c-1.4,0.7-2.9,1.1-4.6,1.1h-7.5v8.6H220z M225.7,79.5h6.8c0.7,0,1.3-0.1,1.9-0.4c0.5-0.3,1-0.7,1.3-1.2
		s0.5-1.1,0.5-1.7s-0.2-1.2-0.5-1.7c-0.3-0.5-0.8-0.9-1.4-1.1c-0.6-0.3-1.2-0.4-2-0.4h-6.6V79.5z M236.6,92.7l-7.6-11.2l6.3-0.9
		l8.4,12.1H236.6z"/>
	<path d="M253.1,92.7V81.2l0.5,2.4L241.5,68h7.3l8.9,12l-3.1-0.1l8.5-11.9h6.8l-11.2,15.1l0.3-2.2v11.8H253.1z"/>
</g>
<g>
	<polygon class="st0" points="16.6,92.7 29.6,78.5 29.6,15.3 16.6,15.3 	"/>
	<polygon class="st0" points="35.9,71.7 48.9,57.4 48.9,15.3 35.9,15.3 	"/>
	<polygon class="st0" points="55.1,50.6 68.1,36.4 68.1,15.3 55.1,15.3 	"/>
	<polygon class="st0" points="74.4,15.3 74.4,29.5 87.4,15.3 	"/>
	<polygon class="st1" points="29.6,92.7 29.6,78.5 16.6,92.7 	"/>
	<polygon class="st1" points="35.9,92.7 48.9,92.7 48.9,57.4 35.9,71.7 	"/>
	<polygon class="st1" points="55.1,92.7 68.1,92.7 68.1,36.4 55.1,50.6 	"/>
	<polygon class="st1" points="74.4,29.5 74.4,92.7 87.4,92.7 87.4,15.3 	"/>
</g>
</svg>
