<?xml version="1.0" encoding="utf-8"?>
<!-- Generator: Adobe Illustrator 27.7.0, SVG Export Plug-In . SVG Version: 6.00 Build 0)  -->
<svg version="1.1" id="Layer_1" xmlns="http://www.w3.org/2000/svg" xmlns:xlink="http://www.w3.org/1999/xlink" x="0px" y="0px"
	 viewBox="0 0 72 72" style="enable-background:new 0 0 72 72;" xml:space="preserve">
<style type="text/css">
	.st0{fill:#053FFB;}
	.st1{fill:#0E68FF;}
</style>
<g>
	<polygon class="st0" points="5.9,68.9 17,56.8 17,3.1 5.9,3.1 	"/>
	<polygon class="st0" points="22.3,51 33.3,38.9 33.3,3.1 22.3,3.1 	"/>
	<polygon class="st0" points="38.7,33.1 49.7,21 49.7,3.1 38.7,3.1 	"/>
	<polygon class="st0" points="55,3.1 55,15.2 66.1,3.1 	"/>
	<polygon class="st1" points="17,68.9 17,56.8 5.9,68.9 	"/>
	<polygon class="st1" points="22.3,68.9 33.3,68.9 33.3,38.9 22.3,51 	"/>
	<polygon class="st1" points="38.7,68.9 49.7,68.9 49.7,21 38.7,33.1 	"/>
	<polygon class="st1" points="55,15.2 55,68.9 66.1,68.9 66.1,3.1 	"/>
</g>
</svg>
